<svg width="199" height="199" viewBox="0 0 199 199" fill="none" xmlns="http://www.w3.org/2000/svg">
<path d="M24.3853 192.365C23.6623 191.642 22.6596 191.227 21.6374 191.227C20.6113 191.227 19.6124 191.642 18.8894 192.365C18.1626 193.088 17.7506 194.091 17.7506 195.113C17.7506 196.135 18.1626 197.138 18.8894 197.861C19.6124 198.584 20.6117 199 21.6374 199C22.6596 199 23.6623 198.584 24.3853 197.861C25.1078 197.138 25.5241 196.135 25.5241 195.113C25.5241 194.091 25.1082 193.088 24.3853 192.365Z" fill="#FE043C"/>
<path d="M145.001 164.898C144.279 164.175 143.276 163.759 142.254 163.759C141.232 163.759 140.229 164.175 139.506 164.898C138.783 165.621 138.367 166.624 138.367 167.646C138.367 168.672 138.783 169.671 139.506 170.394C140.229 171.116 141.232 171.533 142.254 171.533C143.276 171.533 144.279 171.117 145.001 170.394C145.724 169.671 146.141 168.672 146.141 167.646C146.141 166.624 145.725 165.621 145.001 164.898Z" fill="#FE043C"/>
<path d="M186.464 62.8171C189.405 59.8632 191.227 55.7927 191.227 51.3047V48.1953C191.227 39.1941 183.904 31.8711 174.902 31.8711C165.901 31.8711 158.578 39.1941 158.578 48.1953V51.3047C158.578 55.7935 160.4 59.864 163.342 62.8183C156.962 66.3218 152.329 72.6261 151.118 80.0664H133.314C126.885 80.0664 121.654 85.2972 121.654 91.7266C121.654 93.0892 121.891 94.3967 122.323 95.6133H76.6772C77.1086 94.3967 77.3457 93.0892 77.3457 91.7266C77.3457 85.2972 72.115 80.0664 65.6855 80.0664H47.882C46.6706 72.6261 42.0376 66.3214 35.6583 62.8183C38.6002 59.864 40.4219 55.7935 40.4219 51.3047V48.1953C40.4219 39.1941 33.0989 31.8711 24.0977 31.8711C15.0964 31.8711 7.77344 39.1941 7.77344 48.1953V51.3047C7.77344 55.7927 9.59475 59.8632 12.5358 62.8171C5.07178 66.9165 0 74.8528 0 83.9531V122.82V127.549C0 139.729 9.90919 149.639 22.0894 149.639H52.8594V186.757C52.8594 188.334 53.1625 189.841 53.7078 191.227H38.3491C36.2028 191.227 34.4624 192.967 34.4624 195.113C34.4624 197.26 36.2028 199 38.3491 199H177.364C179.51 199 181.251 197.26 181.251 195.113C181.251 192.967 179.51 191.227 177.364 191.227H145.292C145.837 189.841 146.141 188.334 146.141 186.757V182.287C146.141 180.141 144.4 178.4 142.254 178.4C140.108 178.4 138.367 180.141 138.367 182.287V186.757C138.367 189.221 136.362 191.227 133.897 191.227C131.433 191.227 129.428 189.221 129.428 186.757V137.687C129.428 131.633 134.353 126.707 140.408 126.707H154.691H157.801H191.227V127.549C191.227 135.443 184.805 141.865 176.911 141.865H142.254C140.108 141.865 138.367 143.606 138.367 145.752V151.971C138.367 154.117 140.108 155.857 142.254 155.857C144.4 155.857 146.141 154.117 146.141 151.971V149.639H176.911C189.091 149.639 199 139.729 199 127.549V122.82V83.9531C199 74.8528 193.928 66.9165 186.464 62.8171ZM166.352 48.1953C166.352 43.4803 170.187 39.6445 174.902 39.6445C179.617 39.6445 183.453 43.4803 183.453 48.1953V51.3047C183.453 56.0197 179.617 59.8555 174.902 59.8555C170.187 59.8555 166.352 56.0197 166.352 51.3047V48.1953ZM15.5469 48.1953C15.5469 43.4803 19.3827 39.6445 24.0977 39.6445C28.8126 39.6445 32.6484 43.4803 32.6484 48.1953V51.3047C32.6484 56.0197 28.8126 59.8555 24.0977 59.8555C19.3827 59.8555 15.5469 56.0197 15.5469 51.3047V48.1953ZM7.77344 83.9531C7.77344 74.9519 15.0964 67.6289 24.0977 67.6289C33.0989 67.6289 40.4219 74.9519 40.4219 83.9531C40.4219 86.0994 42.1623 87.8398 44.3086 87.8398H65.6855C67.8287 87.8398 69.5723 89.5834 69.5723 91.7266C69.5723 93.8697 67.8287 95.6133 65.6855 95.6133H43.0512C36.8714 95.6133 31.2197 92.2291 28.3011 86.7815C27.2879 84.8894 24.9317 84.177 23.0397 85.191C21.1476 86.2043 20.4356 88.5601 21.4492 90.4525C25.3402 97.7156 32.5493 102.474 40.6391 103.269C40.4984 103.67 40.4219 104.103 40.4219 104.553V118.934H7.77344V83.9531ZM55.7286 118.934H48.1953V104.553C48.1953 104.147 48.1331 103.755 48.0173 103.387H55.7286C54.4012 105.675 53.6367 108.329 53.6367 111.16C53.6367 113.991 54.4008 116.645 55.7286 118.934ZM69.5723 186.757C69.5723 189.221 67.5671 191.227 65.1025 191.227C62.638 191.227 60.6328 189.221 60.6328 186.757V145.752C60.6328 143.606 58.8923 141.865 56.7461 141.865H22.0894C14.1955 141.865 7.77344 135.443 7.77344 127.549V126.707H41.1992H44.3086H58.5923C64.6466 126.707 69.5723 131.633 69.5723 137.687V186.757ZM87.8398 191.227H76.4972C77.0429 189.841 77.3457 188.334 77.3457 186.757V137.687C77.3457 133.589 76.0207 129.796 73.7812 126.707H87.8398V191.227ZM103.387 191.227H95.6133V126.707H103.387V191.227ZM122.503 191.227H111.16V126.707H125.219C122.98 129.796 121.654 133.589 121.654 137.687V186.757C121.654 188.334 121.957 189.841 122.503 191.227ZM129.816 118.934H69.1836C64.8973 118.934 61.4102 115.446 61.4102 111.16C61.4102 106.874 64.8973 103.387 69.1836 103.387H129.816C134.103 103.387 137.59 106.874 137.59 111.16C137.59 115.446 134.103 118.934 129.816 118.934ZM150.805 104.553V118.934H143.271C144.599 116.645 145.363 113.991 145.363 111.16C145.363 108.329 144.599 105.675 143.271 103.387H150.983C150.867 103.755 150.805 104.147 150.805 104.553ZM191.227 118.934H158.578V104.553C158.578 104.103 158.502 103.67 158.361 103.269C166.451 102.474 173.66 97.7156 177.551 90.4525C178.564 88.5601 177.852 86.2043 175.96 85.191C174.067 84.1774 171.713 84.8902 170.699 86.7815C167.78 92.2291 162.129 95.6133 155.949 95.6133H133.314C131.171 95.6133 129.428 93.8697 129.428 91.7266C129.428 89.5834 131.171 87.8398 133.314 87.8398H154.691C156.838 87.8398 158.578 86.0994 158.578 83.9531C158.578 74.9519 165.901 67.6289 174.902 67.6289C183.904 67.6289 191.227 74.9519 191.227 83.9531V118.934Z" fill="#FE043C"/>
<path d="M127.484 0H71.5156C65.0862 0 59.8555 5.23075 59.8555 11.6602V49.75C59.8555 56.1794 65.0862 61.4102 71.5156 61.4102H85.0636L96.7513 73.0979C97.5108 73.8566 98.505 74.2363 99.5 74.2363C100.495 74.2363 101.489 73.8566 102.248 73.0979L113.936 61.4102H127.484C133.914 61.4102 139.145 56.1794 139.145 49.75V11.6602C139.145 5.23075 133.914 0 127.484 0ZM131.371 49.75C131.371 51.8931 129.628 53.6367 127.484 53.6367H112.326C111.295 53.6367 110.307 54.0464 109.578 54.7751L99.5 64.8526L89.4221 54.7747C88.693 54.0464 87.7046 53.6367 86.6738 53.6367H71.5156C69.3725 53.6367 67.6289 51.8931 67.6289 49.75V11.6602C67.6289 9.51702 69.3725 7.77344 71.5156 7.77344H127.484C129.628 7.77344 131.371 9.51702 131.371 11.6602V49.75Z" fill="#FE043C"/>
<path d="M83.9799 26.4686C83.2574 25.7418 82.2546 25.3298 81.2324 25.3298C80.2102 25.3298 79.2074 25.7418 78.4845 26.4686C77.7616 27.1916 77.3457 28.1943 77.3457 29.2166C77.3457 30.2388 77.7612 31.2415 78.4845 31.9645C79.2074 32.6874 80.2102 33.1033 81.2324 33.1033C82.2546 33.1033 83.2574 32.6874 83.9799 31.9645C84.7029 31.2415 85.1191 30.2388 85.1191 29.2166C85.1191 28.1943 84.7033 27.1916 83.9799 26.4686Z" fill="#FE043C"/>
<path d="M102.248 26.4686C101.525 25.7461 100.522 25.3298 99.5 25.3298C98.4778 25.3298 97.475 25.7457 96.7521 26.4686C96.0292 27.1916 95.6133 28.1943 95.6133 29.2166C95.6133 30.2388 96.0288 31.2415 96.7521 31.9645C97.475 32.6874 98.4778 33.1033 99.5 33.1033C100.522 33.1033 101.525 32.6874 102.248 31.9645C102.97 31.2415 103.387 30.2388 103.387 29.2166C103.387 28.1943 102.971 27.1916 102.248 26.4686Z" fill="#FE043C"/>
<path d="M120.515 26.4686C119.793 25.7418 118.79 25.3298 117.768 25.3298C116.745 25.3298 115.743 25.7418 115.02 26.4686C114.297 27.1916 113.881 28.1943 113.881 29.2166C113.881 30.2388 114.296 31.2415 115.02 31.9645C115.743 32.6874 116.745 33.1033 117.768 33.1033C118.79 33.1033 119.793 32.6874 120.515 31.9645C121.238 31.2415 121.654 30.2388 121.654 29.2166C121.654 28.1943 121.238 27.1916 120.515 26.4686Z" fill="#FE043C"/>
</svg>
