<svg width="66" height="45" viewBox="0 0 66 45" fill="none" xmlns="http://www.w3.org/2000/svg">
<path d="M16.5729 23.2732C16.5735 23.2737 16.5739 23.2744 16.5746 23.275L26.7801 33.4313C27.5446 34.1921 28.7813 34.1893 29.5423 33.4246C30.3032 32.6601 30.3003 31.4234 29.5358 30.6625L22.6838 23.8438H64.0469C65.1256 23.8438 66 22.9693 66 21.8906C66 20.8119 65.1256 19.9375 64.0469 19.9375H22.6839L29.5357 13.1188C30.3002 12.3578 30.3031 11.1212 29.5422 10.3567C28.7812 9.59191 27.5444 9.58928 26.78 10.35L16.5745 20.5063C16.5739 20.5069 16.5735 20.5075 16.5728 20.5081C15.8078 21.2716 15.8103 22.5122 16.5729 23.2732Z" fill="white"/>
<circle cx="22.5" cy="22.5" r="21" stroke="white" stroke-width="3"/>
</svg>
