<svg width="40" height="20" viewBox="0 0 40 20" fill="none" xmlns="http://www.w3.org/2000/svg">
<path d="M1.24997 2.49995H38.7501C39.4402 2.49995 40.0001 1.9399 40.0001 1.24997C40.0001 0.559943 39.4401 0 38.7501 0H1.24997C0.559943 0 0 0.560047 0 1.24997C0 1.9399 0.560047 2.49995 1.24997 2.49995Z" fill="white"/>
<path d="M38.7501 8.75006H1.24997C0.559943 8.75006 0 9.31011 0 10C0 10.69 0.560047 11.25 1.24997 11.25H38.7501C39.4402 11.25 40.0001 10.69 40.0001 10C40.0001 9.31011 39.4402 8.75006 38.7501 8.75006Z" fill="white"/>
<path d="M38.7501 17.5001H13.75C13.0599 17.5001 12.5 18.0601 12.5 18.75C12.5 19.4401 13.06 20 13.75 20H38.7501C39.4401 20 40.0001 19.44 40.0001 18.75C40.0002 18.06 39.4401 17.5001 38.7501 17.5001Z" fill="white"/>
</svg>
