<svg width="66" height="45" viewBox="0 0 66 45" fill="none" xmlns="http://www.w3.org/2000/svg">
<circle cx="43.5" cy="22.5" r="21" stroke="white" stroke-width="3"/>
<path d="M49.4271 20.7268C49.4265 20.7263 49.4261 20.7256 49.4254 20.725L39.2199 10.5687C38.4554 9.8079 37.2187 9.81074 36.4577 10.5754C35.6968 11.3399 35.6997 12.5766 36.4642 13.3375L43.3162 20.1562H1.95312C0.874414 20.1562 0 21.0307 0 22.1094C0 23.1881 0.874414 24.0625 1.95312 24.0625H43.3161L36.4643 30.8812C35.6998 31.6422 35.6969 32.8788 36.4578 33.6433C37.2188 34.4081 38.4556 34.4107 39.22 33.65L49.4255 23.4937C49.4261 23.4931 49.4265 23.4925 49.4272 23.4919C50.1922 22.7284 50.1897 21.4878 49.4271 20.7268Z" fill="white"/>
</svg>
