<svg width="199" height="153" viewBox="0 0 199 153" fill="none" xmlns="http://www.w3.org/2000/svg">
<path d="M99.6162 23.1514C67.1404 23.1514 40.7196 49.5721 40.7196 82.048C40.7196 114.524 67.1407 140.945 99.6162 140.945C132.092 140.945 158.513 114.524 158.513 82.048C158.513 49.5721 132.092 23.1514 99.6162 23.1514ZM99.6162 133.171C71.4266 133.171 48.4927 110.237 48.4927 82.0476C48.4927 53.8584 71.4262 30.9244 99.6162 30.9244C127.806 30.9244 150.74 53.858 150.74 82.0476C150.74 110.237 127.806 133.171 99.6162 133.171Z" fill="#FE043C"/>
<path d="M134.481 63.0495C133.452 61.1656 131.091 60.4722 129.207 61.5006C129.144 61.5352 129.086 61.5749 129.025 61.6122C127.282 62.6907 126.664 64.9536 127.658 66.7745C130.198 71.4273 131.541 76.709 131.541 82.0478C131.541 99.6511 117.22 113.972 99.6162 113.972C82.0125 113.972 67.6915 99.6507 67.6915 82.0478C67.6915 64.4444 82.0129 50.123 99.6162 50.123C101.305 50.123 103.001 50.256 104.655 50.5183C106.706 50.844 108.628 49.5008 109.058 47.4972C109.073 47.4276 109.09 47.3592 109.102 47.2877C109.438 45.1675 107.991 43.1763 105.871 42.8405C103.816 42.5148 101.711 42.3496 99.6158 42.3496C77.7266 42.3496 59.9177 60.1582 59.9177 82.0478C59.9177 103.937 77.7262 121.746 99.6158 121.746C121.505 121.746 139.314 103.937 139.314 82.0478C139.314 75.4108 137.643 68.8415 134.481 63.0495Z" fill="#FE043C"/>
<path d="M124.449 49.5695C124.27 49.3907 124.072 49.2275 123.858 49.0875C123.648 48.9476 123.423 48.8271 123.186 48.73C122.952 48.6328 122.708 48.5589 122.459 48.5084C121.957 48.4074 121.441 48.4074 120.939 48.5084C120.69 48.5589 120.449 48.6328 120.212 48.73C119.979 48.8271 119.754 48.9476 119.544 49.0875C119.33 49.2275 119.132 49.3907 118.949 49.5695C118.77 49.7483 118.611 49.9465 118.467 50.1603C118.327 50.3701 118.207 50.5956 118.11 50.8327C118.048 50.9796 118 51.1319 117.957 51.2862C117.932 51.3768 117.907 51.4674 117.888 51.5595C117.838 51.8078 117.815 52.0644 117.815 52.317C117.815 52.5735 117.838 52.8266 117.888 53.0792C117.939 53.3279 118.013 53.5689 118.11 53.8056C118.207 54.0392 118.328 54.2646 118.468 54.4745C118.611 54.6883 118.771 54.8865 118.95 55.0653C119.132 55.2441 119.33 55.4073 119.544 55.5511C119.754 55.6911 119.98 55.8116 120.213 55.9087C120.45 56.0059 120.691 56.0797 120.94 56.1303C121.192 56.1808 121.449 56.2037 121.701 56.2037C121.954 56.2037 122.211 56.1804 122.459 56.1303C122.708 56.0801 122.953 56.0059 123.186 55.9087C123.39 55.8252 123.582 55.7218 123.766 55.6063C123.796 55.5873 123.829 55.571 123.858 55.5511C124.072 55.4073 124.27 55.2441 124.449 55.0653C124.628 54.8865 124.791 54.6883 124.931 54.4745C125.071 54.2646 125.191 54.0392 125.288 53.8056C125.386 53.5689 125.459 53.3241 125.51 53.0792C125.56 52.8266 125.588 52.5735 125.588 52.317C125.588 51.2948 125.172 50.292 124.449 49.5695Z" fill="#FE043C"/>
<path d="M198.9 137.711L186.294 35.0449C185.417 27.8995 183.173 21.0997 179.625 14.8351C177.447 10.9892 174.8 7.41304 171.76 4.20572L171.421 3.84775C168.831 1.115 164.957 0.386629 161.549 1.99223C158.143 3.59745 156.239 7.05002 156.698 10.7875L172.677 140.931C172.728 141.349 172.799 141.759 172.887 142.163C174.215 148.212 179.618 152.533 185.779 152.532C186.314 152.532 186.855 152.5 187.398 152.433C191.691 151.906 195.254 149.363 197.254 145.871C197.465 145.503 197.658 145.126 197.833 144.738C198.008 144.351 198.165 143.954 198.302 143.549C198.921 141.728 199.15 139.744 198.9 137.711ZM164.414 9.8399C164.395 9.68405 164.344 9.26856 164.864 9.02331C165.007 8.95607 165.132 8.93003 165.241 8.93003C165.529 8.93003 165.702 9.1127 165.779 9.1951L166.119 9.55307C168.726 12.3033 170.994 15.3692 172.861 18.6659C175.904 24.0365 177.827 29.8662 178.58 35.9921L185.298 90.7093L174.506 92.0343L164.414 9.8399ZM190.849 141.308C190.14 143.102 188.498 144.466 186.452 144.717C183.475 145.085 180.758 142.959 180.393 139.983L175.453 99.7498L186.245 98.4248L191.185 138.658C191.3 139.588 191.17 140.492 190.849 141.308Z" fill="#FE043C"/>
<path d="M47.9334 4.87965C45.8019 4.61691 43.8636 6.1335 43.602 8.26381L40.067 37.0535C39.5159 41.5403 35.89 44.9253 31.4028 45.1989L28.8263 44.8825L33.4752 7.02084C33.7367 4.89053 32.2217 2.95106 30.091 2.68909C27.9599 2.42518 26.0212 3.94295 25.7596 6.07326L21.1107 43.935L18.5319 43.6186C14.2448 42.2668 11.5463 38.1056 12.097 33.6192L15.632 4.8299C15.8936 2.69958 14.3785 0.760114 12.2478 0.498149C10.1175 0.233852 8.17806 1.752 7.91648 3.88231L4.38151 32.6716C3.49728 39.8749 7.17373 46.6284 13.3754 49.8676L0.152761 134.962C0.151207 134.972 0.149652 134.982 0.148097 134.991C-0.388659 138.629 0.542988 142.243 2.77124 145.168C4.9995 148.093 8.23675 149.951 11.8833 150.398L11.954 150.407C12.5172 150.476 13.0792 150.51 13.637 150.51C16.711 150.51 19.666 149.471 22.0999 147.507C24.9757 145.187 26.7441 141.883 27.0796 138.204L34.895 52.5106C41.6967 50.8685 46.8987 45.2047 47.7829 38.0011L51.3179 9.21139C51.5791 7.08108 50.0641 5.14161 47.9334 4.87965ZM19.3388 137.498C19.1957 139.064 18.4433 140.47 17.2193 141.458C15.9954 142.445 14.4633 142.886 12.9043 142.692L12.8336 142.684C11.2804 142.493 9.90259 141.703 8.95462 140.458C8.0086 139.216 7.61176 137.683 7.83642 136.139L20.9506 51.7476L24.0176 52.1243C24.0192 52.1243 24.0203 52.1246 24.0219 52.125C24.023 52.125 24.0242 52.125 24.0254 52.125L27.0901 52.5013L19.3388 137.498Z" fill="#FE043C"/>
</svg>
