<svg width="322" height="243" viewBox="0 0 322 243" fill="none" xmlns="http://www.w3.org/2000/svg">
<path d="M262.699 124.815L248.042 58.6007C251.997 58.0652 255.486 56.0531 257.94 53.1395C260.836 54.9501 264.254 56.0016 267.914 56.0016H280.492C283.966 56.0016 286.781 53.1862 286.781 49.7125V24.5562C286.781 21.0825 283.966 18.2672 280.492 18.2672H267.914C264.146 18.2672 260.633 19.3825 257.682 21.2962C254.803 18.0412 250.599 15.9825 245.922 15.9825H208.797C202.127 15.9825 196.418 20.1662 194.145 26.045H179.238C170.222 26.045 162.887 33.3806 162.887 42.3965C162.887 51.4125 170.222 58.7481 179.238 58.7481H211.61V71.422C211.61 74.8958 214.425 77.7111 217.899 77.7111C221.373 77.7111 224.188 74.8958 224.188 71.422V58.7481H235.194L250.98 130.077L221.102 183.294C217.837 189.086 211.681 192.685 205.031 192.685H130.444C127.322 166.5 104.995 146.127 77.9844 146.127C66.0327 146.127 54.7566 150.021 45.3746 157.386C45.3623 157.395 45.35 157.405 45.3378 157.415C34.1673 166.2 27.1461 178.808 25.51 192.685H12.5929C13.4134 147.473 50.4476 110.947 95.8492 110.947H140.462C143.983 110.947 146.85 113.814 146.85 117.337V173.818C146.85 177.292 149.665 180.107 153.139 180.107H186.603C200.255 180.107 212.836 172.683 219.434 160.737C222.488 155.209 224.107 148.949 224.112 142.638L224.144 121.744C224.149 118.271 221.336 115.45 217.862 115.445C217.86 115.445 217.857 115.445 217.855 115.445C214.386 115.445 211.57 118.256 211.566 121.725L211.534 142.624C211.531 146.82 210.455 150.981 208.426 154.654C204.038 162.594 195.676 167.527 186.603 167.527H159.428V117.335C159.428 114.114 158.617 111.078 157.195 108.417C162.845 105.152 166.658 99.0497 166.658 92.0703C166.658 81.6663 158.192 73.2031 147.791 73.2031H124.835C122.629 73.2031 120.514 73.5864 118.546 74.2841V19.1172C118.546 8.71321 110.081 0.25 99.6792 0.25H59.1074C29.6962 0.25 5.23761 21.8441 0.741913 50.0073C0.552749 50.6067 0.44957 51.243 0.44957 51.9038C0.44957 51.9431 0.454483 51.98 0.454483 52.0168C0.15477 54.4244 0 56.8737 0 59.3574V92.0728C0 101.519 6.97938 109.365 16.0518 110.729L29.9787 124.656C11.5267 142.137 0 166.856 0 194.221V198.975C0 202.448 2.81534 205.264 6.28906 205.264H41.6331C41.552 205.669 41.5078 206.092 41.5078 206.521C41.5078 215.648 44.8857 223.998 50.4476 230.4H6.28906C2.81534 230.4 0 233.218 0 236.689C0 240.163 2.81534 242.978 6.28906 242.978H77.2572C77.5004 242.986 77.7412 242.998 77.9844 242.998C98.0971 242.998 114.461 226.634 114.461 206.521C114.461 206.092 114.417 205.669 114.336 205.264H205.031C214.934 205.264 224.188 200.517 229.988 192.666H237.953C236.162 197.024 235.211 201.721 235.211 206.521C235.211 215.648 238.589 223.998 244.151 230.4H162.592C159.118 230.4 156.303 233.218 156.303 236.689C156.303 240.163 159.118 242.978 162.592 242.978H270.96C271.204 242.986 271.444 242.998 271.688 242.998C291.8 242.998 308.164 226.634 308.164 206.521C308.164 201.721 307.213 197.024 305.422 192.666H315.711C319.185 192.666 322 189.85 322 186.377C322 153.18 295.603 126.031 262.699 124.815ZM124.835 85.7837H147.791C151.257 85.7837 154.08 88.604 154.08 92.0728C154.08 95.5391 151.257 98.3618 147.791 98.3618H124.835C121.367 98.3618 118.546 95.5391 118.546 92.0728C118.546 88.604 121.367 85.7837 124.835 85.7837ZM12.5781 59.3574C12.5781 58.9692 12.5978 58.5835 12.6076 58.1954H81.4262C84.8999 58.1954 87.7152 55.38 87.7152 51.9063C87.7152 48.4326 84.8999 45.6172 81.4262 45.6172H14.6516C20.5279 26.6469 38.2331 12.8306 59.1074 12.8306H99.6767C103.146 12.8306 105.966 15.6508 105.966 19.1196V92.0728C105.966 95.5391 103.146 98.3618 99.6767 98.3618H18.8696C18.8696 98.3618 18.8672 98.3618 18.8647 98.3618C15.3984 98.3618 12.5781 95.5391 12.5781 92.0728V59.3574ZM34.0518 110.94H48.443C45.4213 112.665 42.5052 114.554 39.6997 116.588L34.0518 110.94ZM101.883 206.521C101.883 219.618 91.2921 230.282 78.2276 230.412C78.1465 230.41 78.0654 230.4 77.9844 230.4H77.2597C64.4162 230.015 54.0859 219.456 54.0859 206.521C54.0859 206.092 54.0417 205.669 53.9606 205.264H102.008C101.927 205.669 101.883 206.092 101.883 206.521ZM38.2011 192.685C39.7587 182.694 45.0061 173.668 53.1106 167.303C53.1303 167.291 53.1475 167.274 53.1671 167.261C60.3062 161.665 68.8873 158.705 77.9844 158.705C98.0504 158.705 114.734 173.457 117.763 192.685H38.2011ZM267.914 30.8453H274.203V43.4234H267.914C264.445 43.4234 261.625 40.6032 261.625 37.1344C261.625 33.668 264.445 30.8453 267.914 30.8453ZM175.465 42.3965C175.465 40.3158 177.157 38.6231 179.238 38.6231H193.094V43.0451C193.094 44.1162 193.202 45.1603 193.406 46.17H179.238C177.157 46.17 175.465 44.4773 175.465 42.3965ZM217.899 46.17H208.797C207.075 46.17 205.672 44.7697 205.672 43.0451V31.6855C205.672 29.9634 207.075 28.5606 208.797 28.5606H245.922C247.644 28.5606 249.047 29.9634 249.047 31.6855V43.0451C249.047 44.7697 247.644 46.17 245.922 46.17H217.899ZM295.586 206.521C295.586 219.618 284.995 230.282 271.931 230.412C271.85 230.41 271.769 230.4 271.688 230.4H270.963C258.119 230.015 247.789 219.456 247.789 206.521C247.789 201.525 249.347 196.695 252.216 192.666H291.159C294.028 196.695 295.586 201.525 295.586 206.521ZM237.326 180.088L261.308 137.374C285.799 137.823 305.963 156.31 309.019 180.088H237.326Z" fill="#FE043C"/>
</svg>
