<svg width="50" height="25" viewBox="0 0 50 25" fill="none" xmlns="http://www.w3.org/2000/svg">
<path d="M0.572872 14.2732C0.57346 14.2737 0.573948 14.2744 0.574631 14.275L10.7801 24.4313C11.5446 25.1921 12.7813 25.1893 13.5423 24.4246C14.3032 23.6601 14.3003 22.4234 13.5358 21.6625L6.68381 14.8438H48.0469C49.1256 14.8438 50 13.9693 50 12.8906C50 11.8119 49.1256 10.9375 48.0469 10.9375H6.68391L13.5357 4.11877C14.3002 3.35783 14.3031 2.12121 13.5422 1.35666C12.7812 0.591913 11.5444 0.589277 10.78 1.35002L0.574535 11.5063C0.573948 11.5069 0.57346 11.5075 0.572777 11.5081C-0.192165 12.2716 -0.189724 13.5122 0.572872 14.2732Z" fill="white"/>
</svg>
