<svg width="745" height="836" viewBox="0 0 745 836" fill="none" xmlns="http://www.w3.org/2000/svg">
<path d="M6.3091 3.54105C6.3091 5.90175 5.25759 7.0821 3.15455 7.0821C1.05152 7.0821 0 5.90175 0 3.54105C0 1.77052 1.57728 0 3.15455 0C4.73183 0 6.3091 1.77052 6.3091 3.54105Z" fill="#E5E5E5"/>
<path d="M73.6062 3.54105C73.6062 5.31157 72.0289 7.0821 70.4516 7.0821C68.8743 7.0821 67.2971 5.31157 67.2971 3.54105C67.2971 1.77052 68.3486 0 70.4516 0C72.0289 0 73.6062 1.77052 73.6062 3.54105Z" fill="#E5E5E5"/>
<path d="M140.903 3.54105C140.903 5.31157 139.326 7.0821 137.749 7.0821C136.171 7.0821 134.594 5.31157 134.594 3.54105C134.594 1.77052 136.171 0 137.749 0C139.326 0 140.903 1.77052 140.903 3.54105Z" fill="#E5E5E5"/>
<path d="M208.201 3.54105C208.201 5.31157 206.623 7.0821 205.046 7.0821C203.469 7.0821 201.891 5.31157 201.891 3.54105C201.891 1.77052 203.469 0 205.046 0C206.623 0 208.201 1.77052 208.201 3.54105Z" fill="#E5E5E5"/>
<path d="M274.972 3.54105C274.972 5.31157 273.394 7.0821 271.817 7.0821C270.24 7.0821 268.663 5.31157 268.663 3.54105C268.663 1.77052 270.24 0 271.817 0C273.394 0 274.972 1.77052 274.972 3.54105Z" fill="#E5E5E5"/>
<path d="M342.269 3.54105C342.269 5.31157 340.692 7.0821 339.114 7.0821C337.537 7.0821 335.96 5.90175 335.96 3.54105C335.96 1.77052 337.537 0 339.114 0C340.692 0 342.269 1.77052 342.269 3.54105Z" fill="#E5E5E5"/>
<path d="M409.566 3.54105C409.566 5.31157 407.989 7.0821 406.411 7.0821C404.834 7.0821 402.731 5.90175 402.731 3.54105C402.731 1.77052 404.308 0 405.886 0C407.463 0 409.566 1.77052 409.566 3.54105Z" fill="#E5E5E5"/>
<path d="M476.337 3.54105C476.337 5.31157 474.76 7.0821 473.183 7.0821C471.606 7.0821 470.028 5.31157 470.028 3.54105C470.028 1.77052 471.606 0 473.183 0C475.286 0 476.337 1.77052 476.337 3.54105Z" fill="#E5E5E5"/>
<path d="M543.635 3.54105C543.635 5.31157 542.057 7.0821 540.48 7.0821C538.903 7.0821 537.325 5.31157 537.325 3.54105C537.325 1.77052 538.903 0 540.48 0C542.057 0 543.635 1.77052 543.635 3.54105Z" fill="#E5E5E5"/>
<path d="M610.932 3.54105C610.932 5.31157 609.354 7.0821 607.777 7.0821C606.2 7.0821 604.622 5.31157 604.622 3.54105C604.622 1.77052 606.2 0 607.777 0C609.354 0 610.932 1.77052 610.932 3.54105Z" fill="#E5E5E5"/>
<path d="M678.229 3.54105C678.229 5.31157 676.651 7.0821 675.074 7.0821C673.497 7.0821 671.919 5.31157 671.919 3.54105C671.919 1.77052 673.497 0 675.074 0C676.651 0 678.229 1.77052 678.229 3.54105Z" fill="#E5E5E5"/>
<path d="M745 3.54105C745 5.31157 743.423 7.0821 741.846 7.0821C740.268 7.0821 738.691 5.31157 738.691 3.54105C738.691 1.77052 740.268 0 741.846 0C743.949 0 745 1.77052 745 3.54105Z" fill="#E5E5E5"/>
<path d="M6.3091 79.0835C6.3091 80.8541 5.25759 82.6246 3.15455 82.6246C1.05152 82.6246 0 80.8541 0 79.0835C0 77.313 1.57728 75.5425 3.15455 75.5425C4.73183 75.5425 6.3091 76.7228 6.3091 79.0835Z" fill="#E5E5E5"/>
<path d="M73.6062 79.0835C73.6062 80.8541 72.0289 82.6246 70.4516 82.6246C68.8743 82.6246 67.2971 80.8541 67.2971 79.0835C67.2971 77.313 68.8743 75.5425 70.4516 75.5425C72.0289 75.5425 73.6062 76.7228 73.6062 79.0835Z" fill="#E5E5E5"/>
<path d="M140.903 79.0835C140.903 80.8541 139.326 82.6246 137.749 82.6246C136.171 82.6246 134.594 80.8541 134.594 79.0835C134.594 77.313 136.171 75.5425 137.749 75.5425C139.326 75.5425 140.903 76.7228 140.903 79.0835Z" fill="#E5E5E5"/>
<path d="M208.201 79.0835C208.201 80.8541 206.623 82.6246 205.046 82.6246C203.469 82.6246 201.891 80.8541 201.891 79.0835C201.891 77.313 203.469 75.5425 205.046 75.5425C206.623 75.5425 208.201 76.7228 208.201 79.0835Z" fill="#E5E5E5"/>
<path d="M274.972 79.0835C274.972 80.8541 273.394 82.6246 271.817 82.6246C270.24 82.6246 268.663 80.8541 268.663 79.0835C268.663 77.313 270.24 75.5425 271.817 75.5425C273.394 75.5425 274.972 76.7228 274.972 79.0835Z" fill="#E5E5E5"/>
<path d="M342.269 79.0835C342.269 80.8541 340.692 82.6246 339.114 82.6246C337.537 82.6246 335.96 80.8541 335.96 79.0835C335.96 77.313 337.537 75.5425 339.114 75.5425C340.692 75.5425 342.269 76.7228 342.269 79.0835Z" fill="#E5E5E5"/>
<path d="M409.566 79.0835C409.566 80.8541 407.989 82.6246 406.412 82.6246C404.834 82.6246 403.257 80.8541 403.257 79.0835C403.257 77.313 404.834 75.5425 406.412 75.5425C407.989 75.5425 409.566 76.7228 409.566 79.0835Z" fill="#E5E5E5"/>
<path d="M476.337 79.0835C476.337 80.8541 474.76 82.6246 473.183 82.6246C471.606 82.6246 470.028 80.8541 470.028 79.0835C470.028 77.313 471.606 75.5425 473.183 75.5425C475.286 75.5425 476.337 76.7228 476.337 79.0835Z" fill="#E5E5E5"/>
<path d="M543.635 79.0835C543.635 80.8541 542.057 82.6246 540.48 82.6246C538.903 82.6246 537.325 80.8541 537.325 79.0835C537.325 77.313 538.903 75.5425 540.48 75.5425C542.057 75.5425 543.635 76.7228 543.635 79.0835Z" fill="#E5E5E5"/>
<path d="M610.932 79.0835C610.932 80.8541 609.354 82.6246 607.777 82.6246C606.2 82.6246 604.622 80.8541 604.622 79.0835C604.622 77.313 606.2 75.5425 607.777 75.5425C609.354 75.5425 610.932 76.7228 610.932 79.0835Z" fill="#E5E5E5"/>
<path d="M678.229 79.0835C678.229 80.8541 676.651 82.6246 675.074 82.6246C673.497 82.6246 671.919 80.8541 671.919 79.0835C671.919 77.313 673.497 75.5425 675.074 75.5425C676.651 75.5425 678.229 76.7228 678.229 79.0835Z" fill="#E5E5E5"/>
<path d="M745 79.0835C745 80.8541 743.423 82.6246 741.846 82.6246C740.268 82.6246 738.691 80.8541 738.691 79.0835C738.691 77.313 740.268 75.5425 741.846 75.5425C743.949 75.5425 745 76.7228 745 79.0835Z" fill="#E5E5E5"/>
<path d="M6.3091 154.627C6.3091 156.397 4.73183 158.168 3.15455 158.168C1.57728 158.168 0 156.397 0 154.627C0 152.856 1.57728 151.085 3.15455 151.085C4.73183 151.085 6.3091 152.266 6.3091 154.627Z" fill="#E5E5E5"/>
<path d="M73.6062 154.625C73.6062 156.396 72.0289 158.166 70.4516 158.166C68.8743 158.166 67.2971 156.396 67.2971 154.625C67.2971 152.855 68.8743 151.084 70.4516 151.084C72.0289 150.494 73.6062 152.264 73.6062 154.625Z" fill="#E5E5E5"/>
<path d="M140.903 154.625C140.903 156.396 139.326 158.166 137.749 158.166C136.171 158.166 134.594 156.396 134.594 154.625C134.594 152.855 136.171 151.084 137.749 151.084C139.326 150.494 140.903 152.264 140.903 154.625Z" fill="#E5E5E5"/>
<path d="M208.201 154.625C208.201 156.396 206.623 158.166 205.046 158.166C203.469 158.166 201.891 156.396 201.891 154.625C201.891 152.855 203.469 151.084 205.046 151.084C206.623 150.494 208.201 152.264 208.201 154.625Z" fill="#E5E5E5"/>
<path d="M274.972 154.625C274.972 156.396 273.394 158.166 271.817 158.166C270.24 158.166 268.663 156.396 268.663 154.625C268.663 152.855 270.24 151.084 271.817 151.084C273.394 150.494 274.972 152.264 274.972 154.625Z" fill="#E5E5E5"/>
<path d="M342.269 154.627C342.269 156.397 340.692 158.168 339.114 158.168C337.537 158.168 335.96 156.397 335.96 154.627C335.96 152.856 337.537 151.085 339.114 151.085C340.692 151.085 342.269 152.266 342.269 154.627Z" fill="#E5E5E5"/>
<path d="M409.566 154.627C409.566 156.397 407.989 158.168 406.412 158.168C404.834 158.168 403.257 156.397 403.257 154.627C403.257 152.856 404.834 151.085 406.412 151.085C407.989 151.085 409.566 152.266 409.566 154.627Z" fill="#E5E5E5"/>
<path d="M476.337 154.625C476.337 156.396 474.76 158.166 473.183 158.166C471.606 158.166 470.028 156.396 470.028 154.625C470.028 152.855 471.606 151.084 473.183 151.084C475.286 150.494 476.337 152.264 476.337 154.625Z" fill="#E5E5E5"/>
<path d="M543.635 154.625C543.635 156.396 542.057 158.166 540.48 158.166C538.903 158.166 537.325 156.396 537.325 154.625C537.325 152.855 538.903 151.084 540.48 151.084C542.057 150.494 543.635 152.264 543.635 154.625Z" fill="#E5E5E5"/>
<path d="M610.932 154.625C610.932 156.396 609.354 158.166 607.777 158.166C606.2 158.166 604.622 156.396 604.622 154.625C604.622 152.855 606.2 151.084 607.777 151.084C609.354 150.494 610.932 152.264 610.932 154.625Z" fill="#E5E5E5"/>
<path d="M678.229 154.625C678.229 156.396 676.651 158.166 675.074 158.166C673.497 158.166 671.919 156.396 671.919 154.625C671.919 152.855 673.497 151.084 675.074 151.084C676.651 150.494 678.229 152.264 678.229 154.625Z" fill="#E5E5E5"/>
<path d="M745 154.625C745 156.396 743.423 158.166 741.846 158.166C740.268 158.166 738.691 156.396 738.691 154.625C738.691 152.855 740.268 151.084 741.846 151.084C743.949 150.494 745 152.264 745 154.625Z" fill="#E5E5E5"/>
<path d="M6.3091 229.578C6.3091 231.349 4.73183 233.119 3.15455 233.119C1.57728 233.119 0 231.939 0 229.578C0 227.808 1.57728 226.037 3.15455 226.037C4.73183 226.037 6.3091 227.808 6.3091 229.578Z" fill="#E5E5E5"/>
<path d="M73.6062 229.578C73.6062 231.349 72.0289 233.119 70.4516 233.119C68.8743 233.119 67.2971 231.349 67.2971 229.578C67.2971 227.808 68.8743 226.037 70.4516 226.037C72.0289 226.037 73.6062 227.808 73.6062 229.578Z" fill="#E5E5E5"/>
<path d="M140.903 229.578C140.903 231.349 139.326 233.119 137.749 233.119C136.171 233.119 134.594 231.349 134.594 229.578C134.594 227.808 136.171 226.037 137.749 226.037C139.326 226.037 140.903 227.808 140.903 229.578Z" fill="#E5E5E5"/>
<path d="M208.201 229.578C208.201 231.349 206.623 233.119 205.046 233.119C203.469 233.119 201.891 231.349 201.891 229.578C201.891 227.808 203.469 226.037 205.046 226.037C206.623 226.037 208.201 227.808 208.201 229.578Z" fill="#E5E5E5"/>
<path d="M274.972 229.578C274.972 231.349 273.394 233.119 271.817 233.119C270.24 233.119 268.663 231.349 268.663 229.578C268.663 227.808 270.24 226.037 271.817 226.037C273.394 226.037 274.972 227.808 274.972 229.578Z" fill="#E5E5E5"/>
<path d="M342.269 229.578C342.269 231.349 340.692 233.119 339.114 233.119C337.537 233.119 335.96 231.349 335.96 229.578C335.96 227.808 337.537 226.037 339.114 226.037C340.692 226.037 342.269 227.808 342.269 229.578Z" fill="#E5E5E5"/>
<path d="M409.566 229.578C409.566 231.349 407.989 233.119 406.412 233.119C404.834 233.119 403.257 231.349 403.257 229.578C403.257 227.808 404.834 226.037 406.412 226.037C407.989 226.037 409.566 227.808 409.566 229.578Z" fill="#E5E5E5"/>
<path d="M476.337 229.578C476.337 231.349 474.76 233.119 473.183 233.119C471.606 233.119 470.028 231.349 470.028 229.578C470.028 227.808 471.606 226.037 473.183 226.037C475.286 226.037 476.337 227.808 476.337 229.578Z" fill="#E5E5E5"/>
<path d="M543.635 229.578C543.635 231.349 542.057 233.119 540.48 233.119C538.903 233.119 537.325 231.349 537.325 229.578C537.325 227.808 538.903 226.037 540.48 226.037C542.057 226.037 543.635 227.808 543.635 229.578Z" fill="#E5E5E5"/>
<path d="M610.932 229.578C610.932 231.349 609.354 233.119 607.777 233.119C606.2 233.119 604.622 231.349 604.622 229.578C604.622 227.808 606.2 226.037 607.777 226.037C609.354 226.037 610.932 227.808 610.932 229.578Z" fill="#E5E5E5"/>
<path d="M678.229 229.578C678.229 231.349 676.651 233.119 675.074 233.119C673.497 233.119 671.919 231.349 671.919 229.578C671.919 227.808 673.497 226.037 675.074 226.037C676.651 226.037 678.229 227.808 678.229 229.578Z" fill="#E5E5E5"/>
<path d="M745 229.578C745 231.349 743.423 233.119 741.846 233.119C740.268 233.119 738.691 231.349 738.691 229.578C738.691 227.808 740.268 226.037 741.846 226.037C743.949 226.037 745 227.808 745 229.578Z" fill="#E5E5E5"/>
<path d="M6.3091 305.121C6.3091 306.891 4.73183 308.662 3.15455 308.662C1.57728 308.662 0 306.891 0 305.121C0 303.35 1.57728 301.58 3.15455 301.58C4.73183 301.58 6.3091 303.35 6.3091 305.121Z" fill="#E5E5E5"/>
<path d="M73.6062 305.121C73.6062 306.891 72.0289 308.662 70.4516 308.662C68.8743 308.662 67.2971 306.891 67.2971 305.121C67.2971 303.35 68.8743 301.58 70.4516 301.58C72.0289 301.58 73.6062 303.35 73.6062 305.121Z" fill="#E5E5E5"/>
<path d="M140.903 305.121C140.903 306.891 139.326 308.662 137.749 308.662C136.171 308.662 134.594 306.891 134.594 305.121C134.594 303.35 136.171 301.58 137.749 301.58C139.326 301.58 140.903 303.35 140.903 305.121Z" fill="#E5E5E5"/>
<path d="M208.201 305.121C208.201 306.891 206.623 308.662 205.046 308.662C203.469 308.662 201.891 306.891 201.891 305.121C201.891 303.35 203.469 301.58 205.046 301.58C206.623 301.58 208.201 303.35 208.201 305.121Z" fill="#E5E5E5"/>
<path d="M274.972 305.121C274.972 306.891 273.394 308.662 271.817 308.662C270.24 308.662 268.663 306.891 268.663 305.121C268.663 303.35 270.24 301.58 271.817 301.58C273.394 301.58 274.972 303.35 274.972 305.121Z" fill="#E5E5E5"/>
<path d="M342.269 305.121C342.269 306.891 340.692 308.662 339.114 308.662C337.537 308.662 335.96 306.891 335.96 305.121C335.96 303.35 337.537 301.58 339.114 301.58C340.692 301.58 342.269 303.35 342.269 305.121Z" fill="#E5E5E5"/>
<path d="M409.566 305.121C409.566 306.891 407.989 308.662 406.412 308.662C404.834 308.662 403.257 306.891 403.257 305.121C403.257 303.35 404.834 301.58 406.412 301.58C407.989 301.58 409.566 303.35 409.566 305.121Z" fill="#E5E5E5"/>
<path d="M476.337 305.121C476.337 306.891 474.76 308.662 473.183 308.662C471.606 308.662 470.028 306.891 470.028 305.121C470.028 303.35 471.606 301.58 473.183 301.58C475.286 301.58 476.337 303.35 476.337 305.121Z" fill="#E5E5E5"/>
<path d="M543.635 305.121C543.635 306.891 542.057 308.662 540.48 308.662C538.903 308.662 537.325 306.891 537.325 305.121C537.325 303.35 538.903 301.58 540.48 301.58C542.057 301.58 543.635 303.35 543.635 305.121Z" fill="#E5E5E5"/>
<path d="M610.932 305.121C610.932 306.891 609.354 308.662 607.777 308.662C606.2 308.662 604.622 306.891 604.622 305.121C604.622 303.35 606.2 301.58 607.777 301.58C609.354 301.58 610.932 303.35 610.932 305.121Z" fill="#E5E5E5"/>
<path d="M678.229 305.121C678.229 306.891 676.651 308.662 675.074 308.662C673.497 308.662 671.919 306.891 671.919 305.121C671.919 303.35 673.497 301.58 675.074 301.58C676.651 301.58 678.229 303.35 678.229 305.121Z" fill="#E5E5E5"/>
<path d="M745 305.121C745 306.891 743.423 308.662 741.846 308.662C740.268 308.662 738.691 306.891 738.691 305.121C738.691 303.35 740.268 301.58 741.846 301.58C743.949 301.58 745 303.35 745 305.121Z" fill="#E5E5E5"/>
<path d="M6.3091 380.662C6.3091 382.433 4.73183 384.203 3.15455 384.203C1.57728 384.203 0 382.433 0 380.662C0 378.892 1.57728 377.121 3.15455 377.121C4.73183 377.121 6.3091 378.301 6.3091 380.662Z" fill="#E5E5E5"/>
<path d="M73.6062 380.662C73.6062 382.433 72.0289 384.203 70.4516 384.203C68.8743 384.203 67.2971 382.433 67.2971 380.662C67.2971 378.892 68.8743 377.121 70.4516 377.121C72.0289 377.121 73.6062 378.301 73.6062 380.662Z" fill="#E5E5E5"/>
<path d="M140.903 380.662C140.903 382.433 139.326 384.203 137.749 384.203C136.171 384.203 134.594 382.433 134.594 380.662C134.594 378.892 136.171 377.121 137.749 377.121C139.326 377.121 140.903 378.301 140.903 380.662Z" fill="#E5E5E5"/>
<path d="M208.201 380.662C208.201 382.433 206.623 384.203 205.046 384.203C203.469 384.203 201.891 382.433 201.891 380.662C201.891 378.892 203.469 377.121 205.046 377.121C206.623 377.121 208.201 378.301 208.201 380.662Z" fill="#E5E5E5"/>
<path d="M274.972 380.662C274.972 382.433 273.394 384.203 271.817 384.203C270.24 384.203 268.663 382.433 268.663 380.662C268.663 378.892 270.24 377.121 271.817 377.121C273.394 377.121 274.972 378.301 274.972 380.662Z" fill="#E5E5E5"/>
<path d="M342.269 380.662C342.269 382.433 340.692 384.203 339.114 384.203C337.537 384.203 335.96 382.433 335.96 380.662C335.96 378.892 337.537 377.121 339.114 377.121C340.692 377.121 342.269 378.301 342.269 380.662Z" fill="#E5E5E5"/>
<path d="M409.566 380.662C409.566 382.433 407.989 384.203 406.412 384.203C404.834 384.203 403.257 382.433 403.257 380.662C403.257 378.892 404.834 377.121 406.412 377.121C407.989 377.121 409.566 378.301 409.566 380.662Z" fill="#E5E5E5"/>
<path d="M476.337 380.662C476.337 382.433 474.76 384.203 473.183 384.203C471.606 384.203 470.028 382.433 470.028 380.662C470.028 378.892 471.606 377.121 473.183 377.121C475.286 377.121 476.337 378.301 476.337 380.662Z" fill="#E5E5E5"/>
<path d="M543.635 380.662C543.635 382.433 542.057 384.203 540.48 384.203C538.903 384.203 537.325 382.433 537.325 380.662C537.325 378.892 538.903 377.121 540.48 377.121C542.057 377.121 543.635 378.301 543.635 380.662Z" fill="#E5E5E5"/>
<path d="M610.932 380.662C610.932 382.433 609.354 384.203 607.777 384.203C606.2 384.203 604.622 382.433 604.622 380.662C604.622 378.892 606.2 377.121 607.777 377.121C609.354 377.121 610.932 378.301 610.932 380.662Z" fill="#E5E5E5"/>
<path d="M678.229 380.662C678.229 382.433 676.651 384.203 675.074 384.203C673.497 384.203 671.919 382.433 671.919 380.662C671.919 378.892 673.497 377.121 675.074 377.121C676.651 377.121 678.229 378.301 678.229 380.662Z" fill="#E5E5E5"/>
<path d="M745 380.662C745 382.433 743.423 384.203 741.846 384.203C740.268 384.203 738.691 382.433 738.691 380.662C738.691 378.892 740.268 377.121 741.846 377.121C743.949 377.121 745 378.301 745 380.662Z" fill="#E5E5E5"/>
<path d="M6.3091 456.205C6.3091 457.976 4.73183 459.746 3.15455 459.746C1.57728 459.746 0 457.976 0 456.205C0 454.435 1.57728 452.664 3.15455 452.664C4.73183 452.664 6.3091 453.844 6.3091 456.205Z" fill="#E5E5E5"/>
<path d="M73.6062 456.206C73.6062 457.976 72.0289 459.747 70.4516 459.747C68.8743 459.747 67.2971 457.976 67.2971 456.206C67.2971 454.435 68.8743 452.665 70.4516 452.665C72.0289 452.075 73.6062 453.845 73.6062 456.206Z" fill="#E5E5E5"/>
<path d="M140.903 456.206C140.903 457.976 139.326 459.747 137.749 459.747C136.171 459.747 134.594 457.976 134.594 456.206C134.594 454.435 136.171 452.665 137.749 452.665C139.326 452.075 140.903 453.845 140.903 456.206Z" fill="#E5E5E5"/>
<path d="M208.201 456.206C208.201 457.976 206.623 459.747 205.046 459.747C203.469 459.747 201.891 457.976 201.891 456.206C201.891 454.435 203.469 452.665 205.046 452.665C206.623 452.075 208.201 453.845 208.201 456.206Z" fill="#E5E5E5"/>
<path d="M274.972 456.206C274.972 457.976 273.394 459.747 271.817 459.747C270.24 459.747 268.663 457.976 268.663 456.206C268.663 454.435 270.24 452.665 271.817 452.665C273.394 452.075 274.972 453.845 274.972 456.206Z" fill="#E5E5E5"/>
<path d="M342.269 456.205C342.269 457.976 340.692 459.746 339.114 459.746C337.537 459.746 335.96 457.976 335.96 456.205C335.96 454.435 337.537 452.664 339.114 452.664C340.692 452.664 342.269 453.844 342.269 456.205Z" fill="#E5E5E5"/>
<path d="M409.566 456.205C409.566 457.976 407.989 459.746 406.412 459.746C404.834 459.746 403.257 457.976 403.257 456.205C403.257 454.435 404.834 452.664 406.412 452.664C407.989 452.664 409.566 453.844 409.566 456.205Z" fill="#E5E5E5"/>
<path d="M476.337 456.206C476.337 457.976 474.76 459.747 473.183 459.747C471.606 459.747 470.028 457.976 470.028 456.206C470.028 454.435 471.606 452.665 473.183 452.665C475.286 452.075 476.337 453.845 476.337 456.206Z" fill="#E5E5E5"/>
<path d="M543.635 456.206C543.635 457.976 542.057 459.747 540.48 459.747C538.903 459.747 537.325 457.976 537.325 456.206C537.325 454.435 538.903 452.665 540.48 452.665C542.057 452.075 543.635 453.845 543.635 456.206Z" fill="#E5E5E5"/>
<path d="M610.932 456.206C610.932 457.976 609.354 459.747 607.777 459.747C606.2 459.747 604.622 457.976 604.622 456.206C604.622 454.435 606.2 452.665 607.777 452.665C609.354 452.075 610.932 453.845 610.932 456.206Z" fill="#E5E5E5"/>
<path d="M678.229 456.206C678.229 457.976 676.651 459.747 675.074 459.747C673.497 459.747 671.919 457.976 671.919 456.206C671.919 454.435 673.497 452.665 675.074 452.665C676.651 452.075 678.229 453.845 678.229 456.206Z" fill="#E5E5E5"/>
<path d="M745 456.206C745 457.976 743.423 459.747 741.846 459.747C740.268 459.747 738.691 457.976 738.691 456.206C738.691 454.435 740.268 452.665 741.846 452.665C743.949 452.075 745 453.845 745 456.206Z" fill="#E5E5E5"/>
<path d="M6.3091 531.157C6.3091 532.928 4.73183 534.698 3.15455 534.698C1.57728 534.698 0 533.518 0 531.157C0 529.387 1.57728 527.616 3.15455 527.616C4.73183 527.616 6.3091 529.387 6.3091 531.157Z" fill="#E5E5E5"/>
<path d="M73.6062 531.157C73.6062 532.928 72.0289 534.698 70.4516 534.698C68.8743 534.698 67.2971 532.928 67.2971 531.157C67.2971 529.387 68.8743 527.616 70.4516 527.616C72.0289 527.616 73.6062 529.387 73.6062 531.157Z" fill="#E5E5E5"/>
<path d="M140.903 531.157C140.903 532.928 139.326 534.698 137.749 534.698C136.171 534.698 134.594 532.928 134.594 531.157C134.594 529.387 136.171 527.616 137.749 527.616C139.326 527.616 140.903 529.387 140.903 531.157Z" fill="#E5E5E5"/>
<path d="M208.201 531.157C208.201 532.928 206.623 534.698 205.046 534.698C203.469 534.698 201.891 532.928 201.891 531.157C201.891 529.387 203.469 527.616 205.046 527.616C206.623 527.616 208.201 529.387 208.201 531.157Z" fill="#E5E5E5"/>
<path d="M274.972 531.157C274.972 532.928 273.394 534.698 271.817 534.698C270.24 534.698 268.663 532.928 268.663 531.157C268.663 529.387 270.24 527.616 271.817 527.616C273.394 527.616 274.972 529.387 274.972 531.157Z" fill="#E5E5E5"/>
<path d="M342.269 531.157C342.269 532.928 340.692 534.698 339.114 534.698C337.537 534.698 335.96 532.928 335.96 531.157C335.96 529.387 337.537 527.616 339.114 527.616C340.692 527.616 342.269 529.387 342.269 531.157Z" fill="#E5E5E5"/>
<path d="M409.566 531.157C409.566 532.928 407.989 534.698 406.412 534.698C404.834 534.698 403.257 532.928 403.257 531.157C403.257 529.387 404.834 527.616 406.412 527.616C407.989 527.616 409.566 529.387 409.566 531.157Z" fill="#E5E5E5"/>
<path d="M476.337 531.157C476.337 532.928 474.76 534.698 473.183 534.698C471.606 534.698 470.028 532.928 470.028 531.157C470.028 529.387 471.606 527.616 473.183 527.616C475.286 527.616 476.337 529.387 476.337 531.157Z" fill="#E5E5E5"/>
<path d="M543.635 531.157C543.635 532.928 542.057 534.698 540.48 534.698C538.903 534.698 537.325 532.928 537.325 531.157C537.325 529.387 538.903 527.616 540.48 527.616C542.057 527.616 543.635 529.387 543.635 531.157Z" fill="#E5E5E5"/>
<path d="M610.932 531.157C610.932 532.928 609.354 534.698 607.777 534.698C606.2 534.698 604.622 532.928 604.622 531.157C604.622 529.387 606.2 527.616 607.777 527.616C609.354 527.616 610.932 529.387 610.932 531.157Z" fill="#E5E5E5"/>
<path d="M678.229 531.157C678.229 532.928 676.651 534.698 675.074 534.698C673.497 534.698 671.919 532.928 671.919 531.157C671.919 529.387 673.497 527.616 675.074 527.616C676.651 527.616 678.229 529.387 678.229 531.157Z" fill="#E5E5E5"/>
<path d="M745 531.157C745 532.928 743.423 534.698 741.846 534.698C740.268 534.698 738.691 532.928 738.691 531.157C738.691 529.387 740.268 527.616 741.846 527.616C743.949 527.616 745 529.387 745 531.157Z" fill="#E5E5E5"/>
<path d="M6.3091 606.7C6.3091 608.47 4.73183 610.241 3.15455 610.241C1.57728 610.241 0 608.47 0 606.7C0 604.929 1.57728 603.159 3.15455 603.159C4.73183 603.159 6.3091 604.929 6.3091 606.7Z" fill="#E5E5E5"/>
<path d="M73.6062 606.7C73.6062 608.47 72.0289 610.241 70.4516 610.241C68.8743 610.241 67.2971 608.47 67.2971 606.7C67.2971 604.929 68.8743 603.159 70.4516 603.159C72.0289 603.159 73.6062 604.929 73.6062 606.7Z" fill="#E5E5E5"/>
<path d="M140.903 606.7C140.903 608.47 139.326 610.241 137.749 610.241C136.171 610.241 134.594 608.47 134.594 606.7C134.594 604.929 136.171 603.159 137.749 603.159C139.326 603.159 140.903 604.929 140.903 606.7Z" fill="#E5E5E5"/>
<path d="M208.201 606.7C208.201 608.47 206.623 610.241 205.046 610.241C203.469 610.241 201.891 608.47 201.891 606.7C201.891 604.929 203.469 603.159 205.046 603.159C206.623 603.159 208.201 604.929 208.201 606.7Z" fill="#E5E5E5"/>
<path d="M274.972 606.7C274.972 608.47 273.394 610.241 271.817 610.241C270.24 610.241 268.663 608.47 268.663 606.7C268.663 604.929 270.24 603.159 271.817 603.159C273.394 603.159 274.972 604.929 274.972 606.7Z" fill="#E5E5E5"/>
<path d="M342.269 606.7C342.269 608.47 340.692 610.241 339.114 610.241C337.537 610.241 335.96 608.47 335.96 606.7C335.96 604.929 337.537 603.159 339.114 603.159C340.692 603.159 342.269 604.929 342.269 606.7Z" fill="#E5E5E5"/>
<path d="M409.566 606.7C409.566 608.47 407.989 610.241 406.412 610.241C404.834 610.241 403.257 608.47 403.257 606.7C403.257 604.929 404.834 603.159 406.412 603.159C407.989 603.159 409.566 604.929 409.566 606.7Z" fill="#E5E5E5"/>
<path d="M476.337 606.7C476.337 608.47 474.76 610.241 473.183 610.241C471.606 610.241 470.028 608.47 470.028 606.7C470.028 604.929 471.606 603.159 473.183 603.159C475.286 603.159 476.337 604.929 476.337 606.7Z" fill="#E5E5E5"/>
<path d="M543.635 606.7C543.635 608.47 542.057 610.241 540.48 610.241C538.903 610.241 537.325 608.47 537.325 606.7C537.325 604.929 538.903 603.159 540.48 603.159C542.057 603.159 543.635 604.929 543.635 606.7Z" fill="#E5E5E5"/>
<path d="M610.932 606.7C610.932 608.47 609.354 610.241 607.777 610.241C606.2 610.241 604.622 608.47 604.622 606.7C604.622 604.929 606.2 603.159 607.777 603.159C609.354 603.159 610.932 604.929 610.932 606.7Z" fill="#E5E5E5"/>
<path d="M678.229 606.7C678.229 608.47 676.651 610.241 675.074 610.241C673.497 610.241 671.919 608.47 671.919 606.7C671.919 604.929 673.497 603.159 675.074 603.159C676.651 603.159 678.229 604.929 678.229 606.7Z" fill="#E5E5E5"/>
<path d="M745 606.7C745 608.47 743.423 610.241 741.846 610.241C740.268 610.241 738.691 608.47 738.691 606.7C738.691 604.929 740.268 603.159 741.846 603.159C743.949 603.159 745 604.929 745 606.7Z" fill="#E5E5E5"/>
<path d="M6.3091 682.242C6.3091 684.013 4.73183 685.783 3.15455 685.783C1.57728 685.783 0 684.013 0 682.242C0 680.472 1.57728 678.701 3.15455 678.701C4.73183 678.701 6.3091 679.882 6.3091 682.242Z" fill="#E5E5E5"/>
<path d="M73.6062 682.242C73.6062 684.013 72.0289 685.783 70.4516 685.783C68.8743 685.783 67.2971 684.013 67.2971 682.242C67.2971 680.472 68.8743 678.701 70.4516 678.701C72.0289 678.701 73.6062 679.882 73.6062 682.242Z" fill="#E5E5E5"/>
<path d="M140.903 682.242C140.903 684.013 139.326 685.783 137.749 685.783C136.171 685.783 134.594 684.013 134.594 682.242C134.594 680.472 136.171 678.701 137.749 678.701C139.326 678.701 140.903 679.882 140.903 682.242Z" fill="#E5E5E5"/>
<path d="M208.201 682.242C208.201 684.013 206.623 685.783 205.046 685.783C203.469 685.783 201.891 684.013 201.891 682.242C201.891 680.472 203.469 678.701 205.046 678.701C206.623 678.701 208.201 679.882 208.201 682.242Z" fill="#E5E5E5"/>
<path d="M274.972 682.242C274.972 684.013 273.394 685.783 271.817 685.783C270.24 685.783 268.663 684.013 268.663 682.242C268.663 680.472 270.24 678.701 271.817 678.701C273.394 678.701 274.972 679.882 274.972 682.242Z" fill="#E5E5E5"/>
<path d="M342.269 682.242C342.269 684.013 340.692 685.783 339.114 685.783C337.537 685.783 335.96 684.013 335.96 682.242C335.96 680.472 337.537 678.701 339.114 678.701C340.692 678.701 342.269 679.882 342.269 682.242Z" fill="#E5E5E5"/>
<path d="M409.566 682.242C409.566 684.013 407.989 685.783 406.412 685.783C404.834 685.783 403.257 684.013 403.257 682.242C403.257 680.472 404.834 678.701 406.412 678.701C407.989 678.701 409.566 679.882 409.566 682.242Z" fill="#E5E5E5"/>
<path d="M476.337 682.242C476.337 684.013 474.76 685.783 473.183 685.783C471.606 685.783 470.028 684.013 470.028 682.242C470.028 680.472 471.606 678.701 473.183 678.701C475.286 678.701 476.337 679.882 476.337 682.242Z" fill="#E5E5E5"/>
<path d="M543.635 682.242C543.635 684.013 542.057 685.783 540.48 685.783C538.903 685.783 537.325 684.013 537.325 682.242C537.325 680.472 538.903 678.701 540.48 678.701C542.057 678.701 543.635 679.882 543.635 682.242Z" fill="#E5E5E5"/>
<path d="M610.932 682.242C610.932 684.013 609.354 685.783 607.777 685.783C606.2 685.783 604.622 684.013 604.622 682.242C604.622 680.472 606.2 678.701 607.777 678.701C609.354 678.701 610.932 679.882 610.932 682.242Z" fill="#E5E5E5"/>
<path d="M678.229 682.242C678.229 684.013 676.651 685.783 675.074 685.783C673.497 685.783 671.919 684.013 671.919 682.242C671.919 680.472 673.497 678.701 675.074 678.701C676.651 678.701 678.229 679.882 678.229 682.242Z" fill="#E5E5E5"/>
<path d="M745 682.242C745 684.013 743.423 685.783 741.846 685.783C740.268 685.783 738.691 684.013 738.691 682.242C738.691 680.472 740.268 678.701 741.846 678.701C743.949 678.701 745 679.882 745 682.242Z" fill="#E5E5E5"/>
<path d="M6.3091 757.194C6.3091 758.965 4.73183 760.735 3.15455 760.735C1.57728 760.735 0 759.555 0 757.194C0 755.424 1.57728 753.653 3.15455 753.653C4.73183 753.653 6.3091 755.424 6.3091 757.194Z" fill="#E5E5E5"/>
<path d="M73.6062 757.194C73.6062 758.965 72.0289 760.735 70.4516 760.735C68.8743 760.735 67.2971 758.965 67.2971 757.194C67.2971 755.424 68.8743 753.653 70.4516 753.653C72.0289 753.653 73.6062 755.424 73.6062 757.194Z" fill="#E5E5E5"/>
<path d="M140.903 757.194C140.903 758.965 139.326 760.735 137.749 760.735C136.171 760.735 134.594 758.965 134.594 757.194C134.594 755.424 136.171 753.653 137.749 753.653C139.326 753.653 140.903 755.424 140.903 757.194Z" fill="#E5E5E5"/>
<path d="M208.201 757.194C208.201 758.965 206.623 760.735 205.046 760.735C203.469 760.735 201.891 758.965 201.891 757.194C201.891 755.424 203.469 753.653 205.046 753.653C206.623 753.653 208.201 755.424 208.201 757.194Z" fill="#E5E5E5"/>
<path d="M274.972 757.194C274.972 758.965 273.394 760.735 271.817 760.735C270.24 760.735 268.663 758.965 268.663 757.194C268.663 755.424 270.24 753.653 271.817 753.653C273.394 753.653 274.972 755.424 274.972 757.194Z" fill="#E5E5E5"/>
<path d="M342.269 757.194C342.269 758.965 340.692 760.735 339.114 760.735C337.537 760.735 335.96 758.965 335.96 757.194C335.96 755.424 337.537 753.653 339.114 753.653C340.692 753.653 342.269 755.424 342.269 757.194Z" fill="#E5E5E5"/>
<path d="M409.566 757.194C409.566 758.965 407.989 760.735 406.412 760.735C404.834 760.735 403.257 758.965 403.257 757.194C403.257 755.424 404.834 753.653 406.412 753.653C407.989 753.653 409.566 755.424 409.566 757.194Z" fill="#E5E5E5"/>
<path d="M476.337 757.194C476.337 758.965 474.76 760.735 473.183 760.735C471.606 760.735 470.028 758.965 470.028 757.194C470.028 755.424 471.606 753.653 473.183 753.653C475.286 753.653 476.337 755.424 476.337 757.194Z" fill="#E5E5E5"/>
<path d="M543.635 757.194C543.635 758.965 542.057 760.735 540.48 760.735C538.903 760.735 537.325 758.965 537.325 757.194C537.325 755.424 538.903 753.653 540.48 753.653C542.057 753.653 543.635 755.424 543.635 757.194Z" fill="#E5E5E5"/>
<path d="M610.932 757.194C610.932 758.965 609.354 760.735 607.777 760.735C606.2 760.735 604.622 758.965 604.622 757.194C604.622 755.424 606.2 753.653 607.777 753.653C609.354 753.653 610.932 755.424 610.932 757.194Z" fill="#E5E5E5"/>
<path d="M678.229 757.194C678.229 758.965 676.651 760.735 675.074 760.735C673.497 760.735 671.919 758.965 671.919 757.194C671.919 755.424 673.497 753.653 675.074 753.653C676.651 753.653 678.229 755.424 678.229 757.194Z" fill="#E5E5E5"/>
<path d="M745 757.194C745 758.965 743.423 760.735 741.846 760.735C740.268 760.735 738.691 758.965 738.691 757.194C738.691 755.424 740.268 753.653 741.846 753.653C743.949 753.653 745 755.424 745 757.194Z" fill="#E5E5E5"/>
<path d="M6.3091 832.737C6.3091 834.507 4.73183 836.278 3.15455 836.278C1.57728 836.278 0 835.098 0 832.737C0 830.966 1.57728 829.196 3.15455 829.196C4.73183 829.196 6.3091 830.966 6.3091 832.737Z" fill="#E5E5E5"/>
<path d="M73.6062 832.737C73.6062 834.507 72.0289 836.278 70.4516 836.278C68.8743 836.278 67.2971 834.507 67.2971 832.737C67.2971 830.966 68.8743 829.196 70.4516 829.196C72.0289 829.196 73.6062 830.966 73.6062 832.737Z" fill="#E5E5E5"/>
<path d="M140.903 832.737C140.903 834.507 139.326 836.278 137.749 836.278C136.171 836.278 134.594 834.507 134.594 832.737C134.594 830.966 136.171 829.196 137.749 829.196C139.326 829.196 140.903 830.966 140.903 832.737Z" fill="#E5E5E5"/>
<path d="M208.201 832.737C208.201 834.507 206.623 836.278 205.046 836.278C203.469 836.278 201.891 834.507 201.891 832.737C201.891 830.966 203.469 829.196 205.046 829.196C206.623 829.196 208.201 830.966 208.201 832.737Z" fill="#E5E5E5"/>
<path d="M274.972 832.737C274.972 834.507 273.394 836.278 271.817 836.278C270.24 836.278 268.663 834.507 268.663 832.737C268.663 830.966 270.24 829.196 271.817 829.196C273.394 829.196 274.972 830.966 274.972 832.737Z" fill="#E5E5E5"/>
<path d="M342.269 832.737C342.269 834.507 340.692 836.278 339.114 836.278C337.537 836.278 335.96 834.507 335.96 832.737C335.96 830.966 337.537 829.196 339.114 829.196C340.692 829.196 342.269 830.966 342.269 832.737Z" fill="#E5E5E5"/>
<path d="M409.566 832.737C409.566 834.507 407.989 836.278 406.412 836.278C404.834 836.278 403.257 834.507 403.257 832.737C403.257 830.966 404.834 829.196 406.412 829.196C407.989 829.196 409.566 830.966 409.566 832.737Z" fill="#E5E5E5"/>
<path d="M476.337 832.737C476.337 834.507 474.76 836.278 473.183 836.278C471.606 836.278 470.028 834.507 470.028 832.737C470.028 830.966 471.606 829.196 473.183 829.196C475.286 829.196 476.337 830.966 476.337 832.737Z" fill="#E5E5E5"/>
<path d="M543.635 832.737C543.635 834.507 542.057 836.278 540.48 836.278C538.903 836.278 537.325 834.507 537.325 832.737C537.325 830.966 538.903 829.196 540.48 829.196C542.057 829.196 543.635 830.966 543.635 832.737Z" fill="#E5E5E5"/>
<path d="M610.932 832.737C610.932 834.507 609.354 836.278 607.777 836.278C606.2 836.278 604.622 834.507 604.622 832.737C604.622 830.966 606.2 829.196 607.777 829.196C609.354 829.196 610.932 830.966 610.932 832.737Z" fill="#E5E5E5"/>
<path d="M678.229 832.737C678.229 834.507 676.651 836.278 675.074 836.278C673.497 836.278 671.919 834.507 671.919 832.737C671.919 830.966 673.497 829.196 675.074 829.196C676.651 829.196 678.229 830.966 678.229 832.737Z" fill="#E5E5E5"/>
<path d="M745 832.737C745 834.507 743.423 836.278 741.846 836.278C740.268 836.278 738.691 834.507 738.691 832.737C738.691 830.966 740.268 829.196 741.846 829.196C743.949 829.196 745 830.966 745 832.737Z" fill="#E5E5E5"/>
</svg>
